<svg width="42" height="43" viewBox="0 0 42 43" fill="none" xmlns="http://www.w3.org/2000/svg">
<g clip-path="url(#clip0_63_66)">
<path d="M21 0.55957C15.3011 0.55957 14.5845 0.58582 12.3454 0.68557C10.1063 0.79057 8.58112 1.14232 7.245 1.66207C5.84284 2.18792 4.57312 3.01499 3.52538 4.08495C2.45542 5.13269 1.62835 6.40241 1.1025 7.80457C0.58275 9.13807 0.228375 10.6658 0.126 12.8971C0.02625 15.1414 0 15.8554 0 21.5622C0 27.2637 0.02625 27.9777 0.126 30.2168C0.231 32.4533 0.58275 33.9784 1.1025 35.3146C1.64062 36.6953 2.35725 37.8661 3.52538 39.0342C4.69088 40.2023 5.86163 40.9216 7.24238 41.4571C8.58113 41.9768 10.1036 42.3312 12.3401 42.4336C14.5819 42.5333 15.2959 42.5596 21 42.5596C26.7041 42.5596 27.4155 42.5333 29.6573 42.4336C31.8911 42.3286 33.4215 41.9768 34.7576 41.4571C36.1588 40.9309 37.4276 40.1038 38.4746 39.0342C39.6427 37.8661 40.3594 36.6953 40.8975 35.3146C41.4146 33.9784 41.769 32.4533 41.874 30.2168C41.9737 27.9777 42 27.2637 42 21.5596C42 15.8554 41.9737 15.1414 41.874 12.8997C41.769 10.6658 41.4146 9.13807 40.8975 7.80457C40.3716 6.40241 39.5446 5.13269 38.4746 4.08495C37.4269 3.01499 36.1572 2.18792 34.755 1.66207C33.4162 1.14232 31.8885 0.787945 29.6546 0.68557C27.4129 0.58582 26.7015 0.55957 20.9948 0.55957H21ZM19.1179 4.34482H21.0026C26.6096 4.34482 27.2737 4.3632 29.4866 4.46557C31.5341 4.55745 32.6471 4.90132 33.3874 5.18745C34.3665 5.56807 35.0674 6.02482 35.8024 6.75982C36.5374 7.49482 36.9915 8.19307 37.3721 9.17482C37.6609 9.91245 38.0021 11.0254 38.094 13.0729C38.1964 15.2858 38.2174 15.9499 38.2174 21.5543C38.2174 27.1587 38.1964 27.8254 38.094 30.0383C38.0021 32.0858 37.6583 33.1962 37.3721 33.9364C37.0331 34.8471 36.496 35.671 35.7997 36.3488C35.0647 37.0838 34.3665 37.5379 33.3848 37.9186C32.6498 38.2073 31.5367 38.5486 29.4866 38.6431C27.2737 38.7428 26.6096 38.7664 21.0026 38.7664C15.3956 38.7664 14.7289 38.7428 12.516 38.6431C10.4685 38.5486 9.35812 38.2073 8.61787 37.9186C7.70656 37.5806 6.8817 37.0445 6.20287 36.3488C5.50534 35.6705 4.96736 34.8456 4.62788 33.9338C4.34175 33.1962 3.99788 32.0832 3.906 30.0357C3.80625 27.8228 3.78525 27.1587 3.78525 21.5491C3.78525 15.9394 3.80625 15.2806 3.906 13.0677C4.0005 11.0202 4.34175 9.9072 4.6305 9.16695C5.01113 8.18782 5.46787 7.48695 6.20287 6.75195C6.93787 6.01695 7.63612 5.56282 8.61787 5.1822C9.35812 4.89345 10.4685 4.5522 12.516 4.4577C14.4533 4.36845 15.204 4.3422 19.1179 4.33957V4.34482ZM32.2114 7.83082C31.8804 7.83082 31.5528 7.896 31.247 8.02264C30.9413 8.14929 30.6635 8.33491 30.4295 8.56891C30.1955 8.80291 30.0098 9.08072 29.8832 9.38646C29.7566 9.6922 29.6914 10.0199 29.6914 10.3508C29.6914 10.6818 29.7566 11.0094 29.8832 11.3152C30.0098 11.6209 30.1955 11.8987 30.4295 12.1327C30.6635 12.3667 30.9413 12.5524 31.247 12.679C31.5528 12.8056 31.8804 12.8708 32.2114 12.8708C32.8797 12.8708 33.5207 12.6053 33.9933 12.1327C34.4659 11.6601 34.7314 11.0192 34.7314 10.3508C34.7314 9.68247 34.4659 9.0415 33.9933 8.56891C33.5207 8.09632 32.8797 7.83082 32.2114 7.83082ZM21.0026 10.7761C19.5722 10.7538 18.1516 11.0162 16.8236 11.5482C15.4955 12.0802 14.2866 12.871 13.2671 13.8747C12.2477 14.8784 11.4381 16.0748 10.8855 17.3944C10.3328 18.7139 10.0482 20.1303 10.0482 21.5609C10.0482 22.9915 10.3328 24.4078 10.8855 25.7274C11.4381 27.047 12.2477 28.2434 13.2671 29.2471C14.2866 30.2508 15.4955 31.0416 16.8236 31.5736C18.1516 32.1055 19.5722 32.368 21.0026 32.3457C23.8338 32.3015 26.5341 31.1458 28.5206 29.1281C30.5071 27.1104 31.6205 24.3924 31.6205 21.5609C31.6205 18.7294 30.5071 16.0114 28.5206 13.9937C26.5341 11.9759 23.8338 10.8202 21.0026 10.7761ZM21.0026 14.5587C21.922 14.5587 22.8324 14.7398 23.6817 15.0916C24.5311 15.4434 25.3029 15.9591 25.953 16.6092C26.6031 17.2593 27.1188 18.0311 27.4706 18.8805C27.8224 19.7298 28.0035 20.6402 28.0035 21.5596C28.0035 22.4789 27.8224 23.3893 27.4706 24.2387C27.1188 25.0881 26.6031 25.8598 25.953 26.5099C25.3029 27.16 24.5311 27.6757 23.6817 28.0275C22.8324 28.3794 21.922 28.5604 21.0026 28.5604C19.1459 28.5604 17.3652 27.8229 16.0523 26.5099C14.7393 25.197 14.0018 23.4163 14.0018 21.5596C14.0018 19.7028 14.7393 17.9221 16.0523 16.6092C17.3652 15.2963 19.1459 14.5587 21.0026 14.5587Z" fill="#85301B"/>
</g>
<defs>
<clipPath id="clip0_63_66">
<rect width="42" height="42" fill="white" transform="translate(0 0.55957)"/>
</clipPath>
</defs>
</svg>
