<svg width="42" height="43" viewBox="0 0 42 43" fill="none" xmlns="http://www.w3.org/2000/svg">
<path d="M0 3.06782C0 1.4062 1.38075 0.0595703 3.08437 0.0595703H38.9156C40.6192 0.0595703 42 1.4062 42 3.06782V39.0513C42 40.7129 40.6192 42.0596 38.9156 42.0596H3.08437C1.38075 42.0596 0 40.7129 0 39.0513V3.06782ZM12.9754 35.2188V16.2532H6.67275V35.2188H12.9754ZM9.82538 13.6623C12.0225 13.6623 13.3901 12.2081 13.3901 10.3863C13.3507 8.5252 12.0251 7.11032 9.86738 7.11032C7.70963 7.11032 6.3 8.52782 6.3 10.3863C6.3 12.2081 7.66763 13.6623 9.78337 13.6623H9.82538ZM22.7089 35.2188V24.6269C22.7089 24.0599 22.7509 23.4929 22.9189 23.0887C23.373 21.9573 24.4099 20.7839 26.1529 20.7839C28.434 20.7839 29.3449 22.5217 29.3449 25.0732V35.2188H35.6475V24.3408C35.6475 18.5133 32.5395 15.8043 28.392 15.8043C25.0477 15.8043 23.5489 17.6418 22.7089 18.9359V19.0016H22.6669L22.7089 18.9359V16.2532H16.4089C16.4876 18.0329 16.4089 35.2188 16.4089 35.2188H22.7089Z" fill="#A093C7"/>
</svg>
