<svg width="42" height="43" viewBox="0 0 42 43" fill="none" xmlns="http://www.w3.org/2000/svg">
<path d="M18.375 36.8096C18.375 36.8096 15.75 36.8096 15.75 34.1846C15.75 31.5596 18.375 23.6846 28.875 23.6846C39.375 23.6846 42 31.5596 42 34.1846C42 36.8096 39.375 36.8096 39.375 36.8096H18.375ZM28.875 21.0596C30.9636 21.0596 32.9666 20.2299 34.4435 18.753C35.9203 17.2762 36.75 15.2732 36.75 13.1846C36.75 11.096 35.9203 9.09295 34.4435 7.6161C32.9666 6.13926 30.9636 5.30957 28.875 5.30957C26.7864 5.30957 24.7834 6.13926 23.3065 7.6161C21.8297 9.09295 21 11.096 21 13.1846C21 15.2732 21.8297 17.2762 23.3065 18.753C24.7834 20.2299 26.7864 21.0596 28.875 21.0596ZM13.692 36.8096C13.303 35.99 13.109 35.0916 13.125 34.1846C13.125 30.6277 14.91 26.9658 18.207 24.4196C16.5616 23.9115 14.8469 23.6635 13.125 23.6846C2.625 23.6846 0 31.5596 0 34.1846C0 36.8096 2.625 36.8096 2.625 36.8096H13.692ZM11.8125 21.0596C13.553 21.0596 15.2222 20.3682 16.4529 19.1375C17.6836 17.9068 18.375 16.2376 18.375 14.4971C18.375 12.7566 17.6836 11.0874 16.4529 9.85668C15.2222 8.62597 13.553 7.93457 11.8125 7.93457C10.072 7.93457 8.40282 8.62597 7.17211 9.85668C5.9414 11.0874 5.25 12.7566 5.25 14.4971C5.25 16.2376 5.9414 17.9068 7.17211 19.1375C8.40282 20.3682 10.072 21.0596 11.8125 21.0596Z" fill="#496BAA"/>
</svg>
